<svg width="1220" height="546" viewBox="0 0 1220 546" fill="none" xmlns="http://www.w3.org/2000/svg">
<g clip-path="url(#clip0_288_49)">
<path d="M90.2001 337.851C83.1752 324.274 77.7216 301.59 75.9989 286.436C71.2201 242.722 83.7113 198.871 110.808 164.236C139.103 128.916 180.435 106.484 225.47 102.006C271.147 97.0507 313.97 110.552 349.668 139.136C354.487 143.129 372.295 159.695 374.385 164.545C412.876 210.057 419.766 293.054 372.129 335.565C362.891 343.814 345.425 351.926 332.871 352.232C323.032 354.38 311.064 350.618 302.305 346.235C309.321 343.883 314.614 341.927 320.776 337.693C343.852 321.843 349.375 291.112 341.572 265.383C335.181 244.718 320.762 227.482 301.548 217.537C255.937 193.389 202.17 219.23 177.261 260.284C173.061 267.204 170.102 273.511 166.44 280.607C142.755 344.974 171.355 413.575 236.626 437.574L237.266 437.808C188.311 434.493 150.321 416.627 116.955 379.928C109.127 371.314 93.4516 348.439 90.2001 337.851Z" fill="#0D55F6"/>
<path d="M349.668 139.136C354.487 143.129 372.295 159.695 374.385 164.545C412.876 210.057 419.766 293.054 372.129 335.565C362.891 343.814 345.425 351.926 332.871 352.232C323.032 354.38 311.064 350.618 302.305 346.235C309.321 343.883 314.614 341.927 320.776 337.693C343.853 321.843 349.375 291.112 341.572 265.383C335.181 244.718 320.762 227.482 301.548 217.538C255.937 193.389 202.17 219.23 177.261 260.284C173.061 267.204 170.103 273.511 166.44 280.607C167.328 274.5 171.862 267.125 174.817 261.778C175.704 260.173 183.642 249.763 183.694 249.129C171.907 251.842 159.216 252.862 147.817 256.832C145.541 257.625 144.63 259.168 141.81 258.329L141.473 257.06C140.932 257.642 138.224 266.722 137.757 268.319L137.435 268.218C139.1 259.049 145.366 244.824 149.829 236.972C161.36 216.686 181.209 196.561 202.086 186.055C205.167 184.445 208.056 182.991 211.257 181.621C241.67 168.323 276.128 167.705 306.997 179.903C316.094 183.554 325.034 187.879 332.886 193.821L336.035 195.664L336.108 195.023C338.281 196.219 341.387 199.17 343.374 200.966C356.89 213.182 365.283 225.808 372.959 242.121C377.046 240.003 376.909 239.92 379.78 236.567C387.832 227.163 388.433 228.603 382.959 217.307C375.498 201.91 365.918 191.589 354.238 179.544C353.047 179.022 347.559 174.004 346.152 172.917C339.883 168.086 334.443 163.339 327.407 159.575C328.096 159.385 328.569 159.184 329.233 158.929C331.177 154.687 335.757 153.339 337.959 150.422C342.93 143.845 340.889 142.231 349.668 139.136Z" fill="#112293"/>
<path d="M349.668 139.136C354.487 143.129 372.295 159.695 374.385 164.545C412.876 210.057 419.766 293.054 372.129 335.565C362.891 343.814 345.425 351.926 332.871 352.232L327.764 352.02L327.192 351.648L326.631 351.88C329.199 351.266 332.778 351.73 335.156 351.363C339.629 350.673 355.845 347.129 357.588 342.925C356.816 341.416 356.514 341.598 354.854 340.51C353.477 338.145 354.844 336.839 353.735 335.106C346.851 338.307 340.874 345.671 332.261 347.191C330.449 347.512 329.004 348.903 326.855 348.709C327.817 348.147 332.798 346.2 334.233 345.581C340.571 342.933 346.25 339.716 351.494 335.239C379.375 311.446 386.172 269.565 369.722 237.264C367.744 233.378 366.221 229.535 363.364 226.121C359.663 219.871 354.834 214.144 349.907 208.838C348.169 205.865 339.048 198.307 336.035 195.664L336.108 195.023C338.281 196.219 341.387 199.17 343.374 200.966C356.89 213.182 365.283 225.808 372.959 242.121C377.046 240.003 376.909 239.92 379.78 236.567C387.832 227.163 388.433 228.603 382.959 217.307C375.498 201.91 365.918 191.589 354.238 179.544C353.047 179.022 347.559 174.004 346.152 172.917C339.883 168.086 334.443 163.339 327.407 159.575C328.096 159.385 328.569 159.184 329.233 158.929C331.177 154.687 335.757 153.339 337.959 150.422C342.93 143.845 340.889 142.231 349.668 139.136Z" fill="#4E29FE"/>
<path d="M349.668 139.136C354.487 143.129 372.295 159.695 374.385 164.545L373.491 164.768C369.78 160.349 366.079 155.969 362.012 151.87C354.321 144.127 350.552 137.417 343.521 150.691C339.79 152.762 335.396 157.091 333.721 160.9L333.74 161.885C335.039 162.672 335.508 163.016 336.626 163.999C341.03 167.861 347.056 170.094 350.796 174.703C352.651 176.977 355.869 178.878 357.598 181.537C356.465 180.899 355.342 180.234 354.238 179.544C353.047 179.022 347.559 174.004 346.152 172.917C339.883 168.086 334.443 163.339 327.407 159.575C328.096 159.385 328.569 159.184 329.233 158.929C331.177 154.687 335.757 153.339 337.959 150.422C342.93 143.845 340.889 142.231 349.668 139.136Z" fill="#2C65FF"/>
<path d="M202.086 186.055C205.167 184.445 208.056 182.991 211.257 181.621C241.67 168.323 276.128 167.705 306.997 179.903L306.328 181.573C303.403 180.726 299.414 178.932 296.86 178.668L296.328 179.054L296.611 180.239C293.745 181.272 277.852 178.009 273.735 177.721C265.928 177.173 252.603 178.662 245.571 176.934L245.43 175.654L244.512 175.575L242.856 177.084L242.28 176.77C236.143 173.475 225.554 178.902 218.843 180.005C215.8 180.506 203.548 186.692 202.086 186.055Z" fill="#061E67"/>
<path d="M306.997 179.903C316.094 183.554 325.034 187.879 332.886 193.821C331.338 194.662 311.133 182.022 306.328 181.573L306.997 179.903Z" fill="#061E67"/>
<path d="M349.907 208.838C354.834 214.144 359.663 219.871 363.364 226.121C362.847 226.039 362.188 225.866 361.87 225.422C359.424 221.988 350.371 212.363 349.907 208.838Z" fill="#061E67"/>
<path d="M90.2001 337.851C83.1752 324.274 77.7216 301.59 75.9989 286.436C71.2201 242.722 83.7114 198.871 110.808 164.236C139.103 128.916 180.435 106.484 225.47 102.006C271.147 97.0507 313.97 110.552 349.668 139.136C340.889 142.231 342.93 143.845 337.959 150.422C335.757 153.339 331.177 154.686 329.233 158.929C328.569 159.183 328.096 159.385 327.407 159.575C319.795 155.701 312.886 152.29 304.8 149.4C270.81 137.454 233.848 136.96 199.554 147.993C134.997 169.137 89.3852 238.012 95.3608 305.498C95.6049 308.254 98.2421 322.84 98.0424 324.045C94.2236 318.613 93.1664 284.669 94.6611 276.962C95.3149 273.589 97.4027 263.73 96.0771 261.579C92.7523 260.186 90.1381 260.723 86.9858 262.193C77.1469 266.782 75.1313 268.183 76.0761 278.895C77.7582 297.977 81.7582 316.225 89.3847 333.789C90.0141 335.229 90.6469 335.908 90.4848 337.414L90.2001 337.851Z" fill="url(#paint0_linear_288_49)"/>
<path d="M202.989 382.066C201.67 380.543 200.116 377.096 199.264 375.177C175.889 322.631 205.914 263.461 263.784 255.482C274.766 253.967 289.15 257.119 297.939 264.139C302.573 266.409 306.807 271.221 309.502 275.553C297.392 272.955 286.113 273.025 275.322 279.951C266.26 285.851 259.907 295.11 257.666 305.691C250.332 339.97 283.799 369.161 314.575 375.196C344.267 381.021 366.977 372.389 390.185 354.758C363.789 406.847 297.617 446.319 240.459 418.175C226.42 411.261 209.625 396.539 202.989 382.066Z" fill="#4E29FE"/>
<path d="M202.989 382.066C201.67 380.543 200.116 377.096 199.264 375.177C175.889 322.631 205.914 263.461 263.784 255.482C274.766 253.967 289.15 257.119 297.939 264.139C295.752 263.905 287.969 259.793 285.224 258.711C278.271 255.973 274.575 256.114 267.407 256.148C240.625 256.273 253.706 270.694 245.981 288.843L246.016 288.844C245.576 287.868 245.762 288.182 245.049 287.38C242.622 288.353 241.865 292.047 239.141 294.336L240.635 295.152C236.68 300.62 232.305 305.768 227.546 310.551C224.994 325.821 226.649 341.498 232.334 355.9C228.97 355.041 226.106 337.254 225.095 333.917C224.255 331.146 225.841 320.472 224.348 319.338L223.708 319.956C220.781 319.864 216.596 323.751 213.708 325.181C206.232 328.881 191.833 337.838 192.861 347.336C194.293 360.573 197.636 369.82 203.446 381.529L202.989 382.066Z" fill="#0D55F6"/>
<path d="M782.09 244.508C799.159 242.96 809.145 246.413 818.388 261.168C817.807 261.608 822.606 254.821 824.096 253.327C830.766 246.637 838.944 244.376 848.139 244.25C857.274 244.123 866.313 246.613 872.831 253.258C876.84 257.34 879.887 263.449 880.956 269.035C882.641 277.804 882.05 288.659 882.05 297.736L882.025 338.703L859.569 338.688C859.311 320.641 859.716 302.594 859.54 284.445C859.77 273.654 855.521 264.396 843.3 263.888C819.628 262.907 820.741 283.249 820.795 299.708L820.878 318.698L820.893 338.722L798.998 338.683C798.734 325.739 799.306 312.755 798.988 299.704C798.485 285.827 802.641 264.279 782.139 263.908C757.268 263.454 759.868 286.759 759.871 303.488L759.86 338.727L737.33 338.717L737.359 246.364L757.577 246.378C758.079 250.915 757.933 256.544 757.939 261.193C763.118 250.592 770.899 246.33 782.09 244.508Z" fill="#000C24"/>
<path d="M1070.62 244.552C1083.69 243.18 1098.62 245.407 1108.21 255.128C1112.01 259 1114.71 263.815 1116.02 269.074C1118.04 276.959 1117.54 291.969 1117.55 300.626L1117.58 338.62L1096.84 338.576C1096.75 334.567 1096.87 330.387 1096.93 326.364C1082.97 344.04 1053.97 347.116 1039.52 328.849C1033.12 319.206 1033.28 301.911 1041.8 293.698C1054.17 281.774 1079.13 283.854 1095.38 283.849C1095.37 265.495 1085.98 259.391 1067.85 263.756C1062.57 265.031 1059.4 269.518 1057.18 274.249L1038.78 269.342C1043.01 253.292 1054.96 246.505 1070.62 244.552Z" fill="#000C24"/>
<path d="M1076.47 298.292C1082.53 298.048 1089.25 298.161 1095.37 298.151C1095.25 312.125 1091.7 320.993 1076.83 323.927C1068.38 325.231 1057.52 323.107 1056.48 312.921C1056.14 309.562 1057.22 306.212 1059.46 303.683C1064.01 298.532 1070.25 298.566 1076.47 298.292Z" fill="#fff"/>
<path d="M494.786 213.297C521.679 212.853 551.339 212.951 578.238 213.302L578.221 234.596H518.693C518.546 245.704 518.687 257.145 518.699 268.278C535.503 267.955 552.898 268.17 569.719 268.214L569.69 278.8L569.634 289.279L518.689 289.288L518.655 338.756L494.697 338.712C495.286 297.282 494.718 254.84 494.786 213.297Z" fill="#000C24"/>
<path d="M695.419 246.388C702.763 246.242 710.506 246.364 717.882 246.364L717.881 276.969L717.884 338.698L696.625 338.629C696.349 334.845 696.417 330.143 696.37 326.285C680.895 349.357 638.973 345.011 633.011 316.364C631.234 307.824 631.906 296.788 631.911 287.921L631.944 246.364L654.413 246.368L654.382 281.93C654.38 289.923 653.88 299.874 655.38 307.306C660.114 330.753 694.366 323.746 694.981 300.646C695.171 293.517 695.438 286.539 695.436 279.523L695.419 246.388Z" fill="#000C24"/>
<path d="M939.061 246.452C947.431 246.154 956.732 246.349 965.17 246.349C971.864 256.154 978.559 265.661 984.511 275.944C990.067 266.217 997.562 255.719 1003.95 246.354L1028.73 246.373C1018.06 261.183 1007.8 276.388 997.094 291.207C1000.56 295.651 1028.42 334.479 1029.79 338.048C1028.74 338.795 1028.19 338.517 1026.61 338.556L1004.48 338.624C997.66 327.97 990.063 317.633 983.168 306.803C977.499 316.422 968.197 329.103 961.596 338.59L936.166 338.585C947.313 324.088 959.311 306.295 969.994 291.217C960.224 276.5 949.14 261.08 939.061 246.452Z" fill="#000C24"/>
<path d="M589.987 213.478C596.461 213.102 606.138 213.41 612.763 213.419L612.673 338.493C609.447 339.025 593.807 338.742 590.029 338.717C589.32 297.785 589.988 254.582 589.987 213.478Z" fill="#000C24"/>
<path d="M901.498 246.378L924.042 246.374L924.008 338.727L901.459 338.717L901.498 246.378Z" fill="#000C24"/>
<path d="M910.561 213.317C917.27 212.013 923.773 216.378 925.116 223.078C926.459 229.782 922.133 236.31 915.438 237.692C908.686 239.079 902.094 234.713 900.746 227.956C899.394 221.198 903.798 214.63 910.561 213.317Z" fill="#000C24"/>
</g>
<defs>
<linearGradient id="paint0_linear_288_49" x1="248.516" y1="240.547" x2="141.038" y2="133.6" gradientUnits="userSpaceOnUse">
<stop stop-color="#2869FF"/>
<stop offset="1" stop-color="#00AFFF"/>
</linearGradient>
<clipPath id="clip0_288_49">
<rect width="1220" height="546" fill="#000C24"/>
</clipPath>
</defs>
</svg>
