<svg viewBox="180 215 645 540" fill="none" xmlns="http://www.w3.org/2000/svg">
<g clip-path="url(#clip0_280_7)">
<path d="M0 0H1000V1000H0V0Z" fill="white"></path>
<path d="M348.345 459.251C341.32 445.674 335.866 422.991 334.143 407.837C329.365 364.123 341.856 320.271 368.952 285.637C397.248 250.316 438.58 227.884 483.615 223.407C529.292 218.451 572.114 231.953 607.812 260.536C612.632 264.529 630.439 281.095 632.529 285.946C671.02 331.457 677.91 414.454 630.273 456.965C621.035 465.214 603.569 473.327 591.016 473.633C581.177 475.781 569.209 472.018 560.449 467.636C567.466 465.283 572.759 463.327 578.921 459.094C601.997 443.244 607.519 412.513 599.717 386.784C593.325 366.119 578.906 348.882 559.692 338.938C514.082 314.789 460.315 340.631 435.405 381.684C431.205 388.605 428.247 394.912 424.584 402.008C400.899 466.375 429.499 534.976 494.77 558.975L495.41 559.209C446.455 555.894 408.466 538.027 375.1 501.328C367.271 492.715 351.596 469.839 348.345 459.251Z" fill="#0D55F6"></path>
<path d="M607.813 260.536C612.632 264.529 630.439 281.095 632.529 285.946C671.021 331.457 677.91 414.454 630.273 456.965C621.035 465.214 603.569 473.327 591.016 473.633C581.177 475.781 569.209 472.018 560.449 467.636C567.466 465.283 572.759 463.327 578.921 459.094C601.997 443.244 607.52 412.513 599.717 386.784C593.325 366.119 578.906 348.882 559.692 338.938C514.082 314.789 460.315 340.631 435.405 381.684C431.206 388.604 428.247 394.912 424.584 402.008C425.473 395.9 430.007 388.526 432.962 383.178C433.848 381.574 441.787 371.164 441.838 370.529C430.052 373.242 417.361 374.263 405.961 378.232C403.686 379.025 402.775 380.568 399.954 379.729L399.618 378.46C399.077 379.042 396.369 388.123 395.902 389.719L395.579 389.619C397.245 380.45 403.51 366.224 407.973 358.372C419.504 338.086 439.353 317.961 460.23 307.455C463.312 305.845 466.2 304.392 469.401 303.021C499.814 289.723 534.272 289.105 565.142 301.304C574.238 304.955 583.179 309.28 591.03 315.222L594.18 317.064L594.253 316.424C596.426 317.619 599.531 320.57 601.519 322.367C615.034 334.582 623.428 347.208 631.104 363.521C635.19 361.404 635.054 361.321 637.925 357.967C645.977 348.563 646.577 350.003 641.104 338.708C633.643 323.31 624.063 312.99 612.383 300.944C611.191 300.422 605.703 295.404 604.297 294.317C598.027 289.486 592.588 284.739 585.552 280.975C586.24 280.786 586.714 280.584 587.378 280.33C589.321 276.087 593.901 274.739 596.104 271.823C601.074 265.246 599.033 263.632 607.813 260.536Z" fill="#112293"></path>
<path d="M607.813 260.536C612.632 264.529 630.439 281.095 632.529 285.946C671.021 331.457 677.91 414.454 630.273 456.965C621.035 465.214 603.569 473.327 591.016 473.633L585.908 473.421L585.337 473.049L584.775 473.28C587.344 472.667 590.923 473.13 593.301 472.763C597.773 472.073 613.989 468.53 615.732 464.325C614.961 462.816 614.658 462.998 612.998 461.911C611.621 459.545 612.988 458.24 611.88 456.507C604.995 459.708 599.019 467.072 590.405 468.592C588.594 468.912 587.148 470.304 585 470.11C585.962 469.548 590.942 467.601 592.378 466.981C598.716 464.333 604.395 461.117 609.639 456.639C637.52 432.847 644.316 390.965 627.866 358.665C625.889 354.778 624.365 350.936 621.509 347.521C617.808 341.271 612.979 335.544 608.052 330.238C606.313 327.266 597.192 319.708 594.18 317.064L594.253 316.424C596.426 317.619 599.531 320.57 601.519 322.367C615.034 334.582 623.428 347.208 631.104 363.521C635.19 361.404 635.054 361.321 637.925 357.967C645.977 348.563 646.577 350.003 641.104 338.708C633.643 323.31 624.063 312.99 612.383 300.944C611.191 300.422 605.703 295.404 604.297 294.317C598.027 289.486 592.588 284.739 585.552 280.975C586.24 280.786 586.714 280.584 587.378 280.33C589.321 276.087 593.901 274.739 596.103 271.823C601.074 265.246 599.033 263.632 607.813 260.536Z" fill="#4E29FE"></path>
<path d="M607.813 260.536C612.632 264.529 630.439 281.095 632.529 285.946L631.636 286.168C627.925 281.749 624.224 277.369 620.156 273.27C612.466 265.527 608.696 258.818 601.665 272.092C597.935 274.162 593.54 278.491 591.865 282.301L591.885 283.285C593.184 284.073 593.652 284.416 594.771 285.399C599.175 289.261 605.2 291.494 608.94 296.103C610.796 298.377 614.014 300.279 615.742 302.938C614.609 302.299 613.486 301.635 612.383 300.944C611.191 300.422 605.703 295.404 604.297 294.317C598.027 289.486 592.588 284.739 585.552 280.975C586.24 280.786 586.714 280.584 587.378 280.33C589.321 276.087 593.901 274.739 596.104 271.823C601.074 265.246 599.033 263.632 607.813 260.536Z" fill="#2C65FF"></path>
<path d="M460.23 307.455C463.312 305.845 466.2 304.392 469.401 303.021C499.814 289.723 534.272 289.106 565.142 301.304L564.473 302.973C561.548 302.126 557.559 300.333 555.005 300.068L554.473 300.455L554.756 301.639C551.89 302.672 535.996 299.41 531.88 299.121C524.072 298.574 510.747 300.063 503.716 298.335L503.574 297.055L502.656 296.975L501.001 298.484L500.425 298.17C494.287 294.875 483.699 300.302 476.988 301.406C473.945 301.906 461.693 308.092 460.23 307.455Z" fill="#061E67"></path>
<path d="M565.142 301.304C574.238 304.955 583.179 309.28 591.03 315.222C589.482 316.062 569.277 303.423 564.473 302.973L565.142 301.304Z" fill="#061E67"></path>
<path d="M608.052 330.238C612.979 335.544 617.808 341.271 621.509 347.521C620.991 347.439 620.332 347.267 620.015 346.823C617.568 343.388 608.516 333.764 608.052 330.238Z" fill="#061E67"></path>
<path d="M348.345 459.251C341.32 445.674 335.866 422.991 334.143 407.837C329.365 364.123 341.856 320.271 368.952 285.637C397.248 250.316 438.58 227.884 483.615 223.407C529.292 218.451 572.114 231.953 607.812 260.536C599.033 263.632 601.074 265.246 596.103 271.823C593.901 274.739 589.321 276.087 587.378 280.33C586.714 280.584 586.24 280.786 585.552 280.975C577.939 277.102 571.03 273.69 562.944 270.801C528.955 258.855 491.992 258.361 457.698 269.393C393.141 290.538 347.53 359.413 353.505 426.898C353.749 429.655 356.387 444.241 356.187 445.445C352.368 440.013 351.311 406.069 352.806 398.362C353.459 394.989 355.547 385.13 354.222 382.979C350.897 381.587 348.283 382.124 345.13 383.593C335.291 388.182 333.276 389.583 334.221 400.296C335.903 419.378 339.903 437.626 347.529 455.189C348.159 456.629 348.791 457.309 348.629 458.814L348.345 459.251Z" fill="url(#paint0_linear_280_7)"></path>
<path d="M461.133 503.467C459.814 501.943 458.261 498.496 457.408 496.577C434.034 444.032 464.059 384.862 521.929 376.882C532.91 375.368 547.295 378.519 556.084 385.539C560.718 387.809 564.951 392.621 567.646 396.954C555.537 394.355 544.258 394.426 533.467 401.351C524.404 407.252 518.052 416.51 515.81 427.092C508.476 461.37 541.943 490.561 572.72 496.597C602.412 502.422 625.122 493.789 648.33 476.158C621.933 528.247 555.762 567.72 498.603 539.575C484.564 532.661 467.769 517.939 461.133 503.467Z" fill="#4E29FE"></path>
<path d="M461.133 503.467C459.814 501.943 458.261 498.496 457.408 496.577C434.034 444.032 464.059 384.862 521.929 376.882C532.91 375.368 547.295 378.519 556.084 385.539C553.896 385.305 546.113 381.193 543.369 380.112C536.416 377.373 532.72 377.515 525.552 377.548C498.769 377.673 511.85 392.094 504.126 410.244L504.16 410.245C503.721 409.268 503.906 409.582 503.193 408.78C500.766 409.754 500.01 413.447 497.285 415.736L498.779 416.553C494.824 422.02 490.449 427.168 485.69 431.951C483.139 447.222 484.793 462.899 490.478 477.3C487.114 476.442 484.25 458.655 483.239 455.317C482.399 452.546 483.985 441.872 482.493 440.738L481.853 441.356C478.925 441.265 474.74 445.152 471.852 446.581C464.377 450.281 449.977 459.239 451.005 468.737C452.437 481.973 455.781 491.221 461.59 502.93L461.133 503.467Z" fill="#0D55F6"></path>
<path d="M479.235 652.476C496.304 650.928 506.289 654.38 515.532 669.136C514.951 669.575 519.751 662.788 521.24 661.294C527.91 654.604 536.089 652.344 545.283 652.217C554.419 652.09 563.457 654.58 569.976 661.226C573.984 665.308 577.031 671.416 578.101 677.002C579.785 685.771 579.194 696.626 579.194 705.703L579.17 746.67L556.714 746.655C556.455 728.608 556.86 710.562 556.685 692.412C556.914 681.621 552.666 672.363 540.444 671.855C516.772 670.874 517.886 691.216 517.939 707.676L518.022 726.665L518.037 746.689L496.143 746.65C495.879 733.706 496.45 720.723 496.133 707.671C495.63 693.794 499.785 672.246 479.283 671.875C454.413 671.421 457.012 694.727 457.016 711.455L457.004 746.694L434.475 746.685L434.504 654.331L454.721 654.346C455.223 658.882 455.077 664.512 455.083 669.16C460.262 658.56 468.043 654.297 479.235 652.476Z" fill="#000C24"></path>
<path d="M767.763 652.519C780.835 651.147 795.766 653.374 805.351 663.096C809.15 666.968 811.85 671.782 813.169 677.041C815.185 684.927 814.682 699.936 814.692 708.594L814.721 746.587L793.989 746.543C793.891 742.534 794.013 738.354 794.072 734.331C780.117 752.007 751.118 755.083 736.66 736.816C730.263 727.173 730.425 709.878 738.945 701.665C751.313 689.741 776.279 691.821 792.524 691.816C792.514 673.462 783.125 667.358 764.995 671.724C759.712 672.998 756.543 677.485 754.326 682.217L735.928 677.31C740.151 661.26 752.104 654.473 767.763 652.519Z" fill="#000C24"></path>
<path d="M773.618 706.26C779.678 706.016 786.397 706.128 792.51 706.118C792.397 720.093 788.848 728.96 773.97 731.895C765.527 733.198 754.663 731.074 753.623 720.889C753.286 717.529 754.365 714.18 756.602 711.65C761.157 706.499 767.397 706.533 773.618 706.26Z" fill="white"></path>
<path d="M191.93 621.265C218.823 620.82 248.483 620.918 275.382 621.27L275.366 642.563H215.837C215.69 653.672 215.831 665.112 215.844 676.245C232.647 675.923 250.042 676.138 266.864 676.182L266.834 686.768L266.778 697.246L215.834 697.256L215.799 746.724L191.842 746.68C192.431 705.249 191.863 662.808 191.93 621.265Z" fill="#000C24"></path>
<path d="M392.563 654.355C399.908 654.209 407.65 654.331 415.026 654.331L415.026 684.936L415.029 746.665L393.77 746.597C393.493 742.812 393.561 738.11 393.515 734.253C378.039 757.324 336.118 752.979 330.156 724.331C328.378 715.791 329.05 704.756 329.056 695.889L329.088 654.331L351.557 654.336L351.527 689.897C351.524 697.891 351.025 707.842 352.525 715.273C357.259 738.721 391.511 731.714 392.126 708.613C392.315 701.484 392.583 694.507 392.580 687.490L392.563 654.355Z" fill="#000C24"></path>
<path d="M636.206 654.419C644.575 654.121 653.877 654.316 662.314 654.316C669.009 664.121 675.703 673.628 681.655 683.911C687.212 674.185 694.707 663.687 701.094 654.321L725.874 654.341C715.2 669.15 704.946 684.355 694.238 699.175C697.705 703.618 725.566 742.446 726.938 746.016C725.884 746.763 725.337 746.484 723.755 746.523L701.626 746.592C694.805 735.938 687.207 725.601 680.313 714.770C674.644 724.390 665.342 737.070 658.740 746.558L633.311 746.553C644.458 732.056 656.455 714.263 667.139 699.185C657.368 684.468 646.284 669.048 636.206 654.419Z" fill="#000C24"></path>
<path d="M287.132 621.445C293.605 621.069 303.282 621.377 309.908 621.387L309.818 746.460C306.591 746.992 290.952 746.709 287.174 746.685C286.465 705.752 287.133 662.549 287.132 621.445Z" fill="#000C24"></path>
<path d="M598.643 654.346L621.187 654.341L621.152 746.694L598.604 746.685L598.643 654.346Z" fill="#000C24"></path>
<path d="M607.705 621.284C614.414 619.980 620.918 624.346 622.261 631.045C623.604 637.749 619.277 644.277 612.583 645.659C605.830 647.046 599.238 642.681 597.891 635.923C596.538 629.165 600.942 622.598 607.705 621.284Z" fill="#000C24"></path>
</g>
<defs>
<linearGradient id="paint0_linear_280_7" x1="506.66" y1="361.948" x2="399.183" y2="255.001" gradientUnits="userSpaceOnUse">
<stop stop-color="#2869FF"></stop>
<stop offset="1" stop-color="#00AFFF"></stop>
</linearGradient>
<clipPath id="clip0_280_7">
<rect width="1000" height="1000" fill="white"></rect>
</clipPath>
</defs>
</svg>