<svg width="200" height="200" viewBox="220 220 460 360" fill="none" xmlns="http://www.w3.org/2000/svg">
<path d="M348.345 459.251C341.32 445.674 335.866 422.991 334.143 407.837C329.365 364.123 341.856 320.271 368.952 285.637C397.248 250.316 438.58 227.884 483.615 223.407C529.292 218.451 572.114 231.953 607.812 260.536C612.632 264.529 630.439 281.095 632.529 285.946C671.02 331.457 677.91 414.454 630.273 456.965C621.035 465.214 603.569 473.327 591.016 473.633C581.177 475.781 569.209 472.018 560.449 467.636C567.466 465.283 572.759 463.327 578.921 459.094C601.997 443.244 607.519 412.513 599.717 386.784C593.325 366.119 578.906 348.882 559.692 338.938C514.082 314.789 460.315 340.631 435.405 381.684C431.205 388.605 428.247 394.912 424.584 402.008C400.899 466.375 429.499 534.976 494.77 558.975L495.41 559.209C446.455 555.894 408.466 538.027 375.1 501.328C367.271 492.715 351.596 469.839 348.345 459.251Z" fill="#0D55F6"></path>
<path d="M607.813 260.536C612.632 264.529 630.439 281.095 632.529 285.946C671.021 331.457 677.91 414.454 630.273 456.965C621.035 465.214 603.569 473.327 591.016 473.633L585.908 473.421L585.337 473.049L584.775 473.28C587.344 472.667 590.923 473.13 593.301 472.763C597.773 472.073 613.989 468.53 615.732 464.325C614.961 462.816 614.658 462.998 612.998 461.911C611.621 459.545 612.988 458.24 611.88 456.507C604.995 459.708 599.019 467.072 590.405 468.592C588.594 468.912 587.148 470.304 585 470.11C585.962 469.548 590.942 467.601 592.378 466.981C598.716 464.333 604.395 461.117 609.639 456.639C637.52 432.847 644.316 390.965 627.866 358.665C625.889 354.778 624.365 350.936 621.509 347.521C617.808 341.271 612.979 335.544 608.052 330.238C606.313 327.266 597.192 319.708 594.18 317.064L594.253 316.424C596.426 317.619 599.531 320.57 601.519 322.367C615.034 334.582 623.428 347.208 631.104 363.521C635.19 361.404 635.054 361.321 637.925 357.967C645.977 348.563 646.577 350.003 641.104 338.708C633.643 323.31 624.063 312.99 612.383 300.944C611.191 300.422 605.703 295.404 604.297 294.317C598.027 289.486 592.588 284.739 585.552 280.975C586.24 280.786 586.714 280.584 587.378 280.33C589.321 276.087 593.901 274.739 596.103 271.823C601.074 265.246 599.033 263.632 607.813 260.536Z" fill="#4E29FE"></path>
<path d="M461.133 503.467C459.814 501.943 458.261 498.496 457.408 496.577C434.034 444.032 464.059 384.862 521.929 376.882C532.91 375.368 547.295 378.519 556.084 385.539C560.718 387.809 564.951 392.621 567.646 396.954C555.537 394.355 544.258 394.426 533.467 401.351C524.404 407.252 518.052 416.51 515.81 427.092C508.476 461.37 541.943 490.561 572.72 496.597C602.412 502.422 625.122 493.789 648.33 476.158C621.933 528.247 555.762 567.72 498.603 539.575C484.564 532.661 467.769 517.939 461.133 503.467Z" fill="#4E29FE"></path>
<path d="M348.345 459.251C341.32 445.674 335.866 422.991 334.143 407.837C329.365 364.123 341.856 320.271 368.952 285.637C397.248 250.316 438.58 227.884 483.615 223.407C529.292 218.451 572.114 231.953 607.812 260.536C599.033 263.632 601.074 265.246 596.103 271.823C593.901 274.739 589.321 276.087 587.378 280.33C586.714 280.584 586.24 280.786 585.552 280.975C577.939 277.102 571.03 273.69 562.944 270.801C528.955 258.855 491.992 258.361 457.698 269.393C393.141 290.538 347.53 359.413 353.505 426.898C353.749 429.655 356.387 444.241 356.187 445.445C352.368 440.013 351.311 406.069 352.806 398.362C353.459 394.989 355.547 385.13 354.222 382.979C350.897 381.587 348.283 382.124 345.13 383.593C335.291 388.182 333.276 389.583 334.221 400.296C335.903 419.378 339.903 437.626 347.529 455.189C348.159 456.629 348.791 457.309 348.629 458.814L348.345 459.251Z" fill="url(#paint0_linear_280_7)"></path>
<defs>
<linearGradient id="paint0_linear_280_7" x1="506.66" y1="361.948" x2="399.183" y2="255.001" gradientUnits="userSpaceOnUse">
<stop stop-color="#2869FF"></stop>
<stop offset="1" stop-color="#00AFFF"></stop>
</linearGradient>
</defs>
</svg>