<svg width="331" height="337" viewBox="0 0 331 337" fill="none" xmlns="http://www.w3.org/2000/svg">
<g clip-path="url(#clip0_290_13)">
<rect width="331" height="337" fill="white"/>
<path d="M15.2001 236.851C8.1752 223.274 2.72159 200.59 0.998936 185.436C-3.77987 141.722 8.71135 97.871 35.8075 63.2362C64.1034 27.9159 105.435 5.48376 150.47 1.00622C196.147 -3.94935 238.97 9.55212 274.668 38.1356C279.487 42.1288 297.295 58.6947 299.385 63.5453C337.876 109.057 344.766 192.054 297.129 234.565C287.891 242.814 270.425 250.926 257.871 251.232C248.032 253.38 236.064 249.618 227.305 245.235C234.321 242.883 239.614 240.927 245.776 236.693C268.852 220.843 274.375 190.112 266.572 164.383C260.181 143.718 245.762 126.482 226.548 116.537C180.937 92.3886 127.17 118.23 102.261 159.284C98.061 166.204 95.1025 172.511 91.4399 179.607C67.7548 243.974 96.3549 312.575 161.626 336.574L162.266 336.808C113.311 333.493 75.3212 315.627 41.955 278.928C34.1269 270.314 18.4516 247.439 15.2001 236.851Z" fill="#0D55F6"/>
<path d="M274.668 38.1357C279.487 42.1289 297.295 58.6948 299.385 63.5454C337.876 109.057 344.766 192.054 297.129 234.565C287.891 242.814 270.425 250.926 257.871 251.232C248.032 253.38 236.064 249.618 227.305 245.235C234.321 242.883 239.614 240.927 245.776 236.693C268.853 220.843 274.375 190.112 266.572 164.383C260.181 143.718 245.762 126.482 226.548 116.538C180.937 92.3887 127.17 118.23 102.261 159.284C98.0611 166.204 95.1025 172.511 91.44 179.607C92.3281 173.5 96.8623 166.125 99.8174 160.778C100.704 159.173 108.642 148.763 108.694 148.129C96.9072 150.842 84.2163 151.862 72.8169 155.832C70.541 156.625 69.6304 158.168 66.8096 157.329L66.4731 156.06C65.9321 156.642 63.2241 165.722 62.7573 167.319L62.4346 167.218C64.1001 158.049 70.3657 143.824 74.8286 135.972C86.3599 115.686 106.209 95.561 127.086 85.0547C130.167 83.4448 133.056 81.9912 136.257 80.6206C166.67 67.3227 201.128 66.7051 231.997 78.9033C241.094 82.5542 250.034 86.8794 257.886 92.8213L261.035 94.6636L261.108 94.0234C263.281 95.2188 266.387 98.1699 268.374 99.9663C281.89 112.182 290.283 124.808 297.959 141.121C302.046 139.003 301.909 138.92 304.78 135.567C312.832 126.163 313.433 127.603 307.959 116.307C300.498 100.91 290.918 90.5893 279.238 78.5439C278.047 78.022 272.559 73.0039 271.152 71.917C264.883 67.0859 259.443 62.3389 252.407 58.5747C253.096 58.3853 253.569 58.1836 254.233 57.9292C256.177 53.6865 260.757 52.3389 262.959 49.4224C267.93 42.8452 265.889 41.2314 274.668 38.1357Z" fill="#112293"/>
<path d="M274.668 38.1357C279.487 42.1289 297.295 58.6948 299.385 63.5454C337.876 109.057 344.766 192.054 297.129 234.565C287.891 242.814 270.425 250.926 257.871 251.232L252.764 251.02L252.192 250.648L251.631 250.88C254.199 250.266 257.778 250.73 260.156 250.363C264.629 249.673 280.845 246.129 282.588 241.925C281.816 240.416 281.514 240.598 279.854 239.51C278.477 237.145 279.844 235.839 278.735 234.106C271.851 237.307 265.874 244.671 257.261 246.191C255.449 246.512 254.004 247.903 251.855 247.709C252.817 247.147 257.798 245.2 259.233 244.581C265.571 241.933 271.25 238.716 276.494 234.239C304.375 210.446 311.172 168.565 294.722 136.264C292.744 132.378 291.221 128.535 288.364 125.121C284.663 118.871 279.834 113.144 274.907 107.838C273.169 104.865 264.048 97.3071 261.035 94.6636L261.108 94.0234C263.281 95.2188 266.387 98.1699 268.374 99.9663C281.89 112.182 290.283 124.808 297.959 141.121C302.046 139.003 301.909 138.92 304.78 135.567C312.832 126.163 313.433 127.603 307.959 116.307C300.498 100.91 290.918 90.5893 279.238 78.5439C278.047 78.022 272.559 73.0039 271.152 71.917C264.883 67.0859 259.443 62.3389 252.407 58.5747C253.096 58.3853 253.569 58.1836 254.233 57.9292C256.177 53.6865 260.757 52.3389 262.959 49.4224C267.93 42.8452 265.889 41.2314 274.668 38.1357Z" fill="#4E29FE"/>
<path d="M274.668 38.1357C279.487 42.1289 297.295 58.6948 299.385 63.5454L298.491 63.7676C294.78 59.3486 291.079 54.9687 287.012 50.8696C279.321 43.1269 275.552 36.4175 268.521 49.6914C264.79 51.7617 260.396 56.0908 258.721 59.9004L258.74 60.8848C260.039 61.6724 260.508 62.0156 261.626 62.9985C266.03 66.8608 272.056 69.0938 275.796 73.7026C277.651 75.9766 280.869 77.8784 282.598 80.5371C281.465 79.8989 280.342 79.2344 279.238 78.5439C278.047 78.022 272.559 73.0039 271.152 71.917C264.883 67.0859 259.443 62.3389 252.407 58.5747C253.096 58.3853 253.569 58.1836 254.233 57.9292C256.177 53.6865 260.757 52.3389 262.959 49.4224C267.93 42.8452 265.889 41.2314 274.668 38.1357Z" fill="#2C65FF"/>
<path d="M127.086 85.0547C130.167 83.4449 133.056 81.9912 136.257 80.6206C166.67 67.3228 201.128 66.7051 231.997 78.9034L231.328 80.5728C228.403 79.7256 224.414 77.9321 221.86 77.668L221.328 78.0542L221.611 79.2388C218.745 80.272 202.852 77.0093 198.735 76.7207C190.928 76.1734 177.603 77.6621 170.571 75.9341L170.43 74.6543L169.512 74.5747L167.856 76.084L167.28 75.7701C161.143 72.4746 150.554 77.9019 143.843 79.0054C140.8 79.5059 128.548 85.6919 127.086 85.0547Z" fill="#061E67"/>
<path d="M231.997 78.9033C241.094 82.5542 250.034 86.8794 257.886 92.8213C256.338 93.6621 236.133 81.0225 231.328 80.5728L231.997 78.9033Z" fill="#061E67"/>
<path d="M274.907 107.838C279.834 113.144 284.663 118.871 288.364 125.121C287.847 125.039 287.188 124.866 286.87 124.422C284.424 120.988 275.371 111.363 274.907 107.838Z" fill="#061E67"/>
<path d="M15.2001 236.851C8.1752 223.274 2.72159 200.59 0.998935 185.436C-3.77987 141.722 8.71135 97.871 35.8075 63.2362C64.1034 27.9159 105.435 5.48376 150.47 1.00622C196.147 -3.94935 238.97 9.55212 274.668 38.1356C265.889 41.2313 267.93 42.8451 262.959 49.4222C260.757 52.3387 256.177 53.6864 254.233 57.9291C253.569 58.1835 253.096 58.3851 252.407 58.5746C244.795 54.7011 237.886 51.2899 229.8 48.4003C195.81 36.4545 158.848 35.9603 124.554 46.9925C59.9965 68.1371 14.3852 137.012 20.3608 204.498C20.6049 207.254 23.2421 221.84 23.0424 223.045C19.2236 217.613 18.1664 183.669 19.6611 175.962C20.3149 172.589 22.4027 162.73 21.0771 160.579C17.7523 159.186 15.1381 159.723 11.9858 161.193C2.1469 165.782 0.13127 167.183 1.07609 177.895C2.75822 196.977 6.75821 215.225 14.3847 232.789C15.0141 234.229 15.6469 234.908 15.4848 236.414L15.2001 236.851Z" fill="url(#paint0_linear_290_13)"/>
<path d="M127.989 281.066C126.67 279.543 125.116 276.096 124.264 274.177C100.889 221.631 130.914 162.461 188.784 154.482C199.766 152.967 214.15 156.119 222.939 163.139C227.573 165.409 231.807 170.221 234.502 174.553C222.392 171.955 211.113 172.025 200.322 178.951C191.26 184.851 184.907 194.11 182.666 204.691C175.332 238.97 208.799 268.161 239.575 274.196C269.267 280.021 291.977 271.389 315.185 253.758C288.789 305.847 222.617 345.319 165.459 317.175C151.42 310.261 134.625 295.539 127.989 281.066Z" fill="#4E29FE"/>
<path d="M127.989 281.066C126.67 279.543 125.116 276.096 124.264 274.177C100.889 221.631 130.914 162.461 188.784 154.482C199.766 152.967 214.15 156.119 222.939 163.139C220.752 162.905 212.969 158.793 210.224 157.711C203.271 154.973 199.575 155.114 192.407 155.148C165.625 155.273 178.706 169.694 170.981 187.843L171.016 187.844C170.576 186.868 170.762 187.182 170.049 186.38C167.622 187.353 166.865 191.047 164.141 193.336L165.635 194.152C161.68 199.62 157.305 204.768 152.546 209.551C149.994 224.821 151.649 240.498 157.334 254.9C153.97 254.041 151.106 236.254 150.095 232.917C149.255 230.146 150.841 219.472 149.348 218.338L148.708 218.956C145.781 218.864 141.596 222.751 138.708 224.181C131.232 227.881 116.833 236.838 117.861 246.336C119.293 259.573 122.636 268.82 128.446 280.529L127.989 281.066Z" fill="#0D55F6"/>
</g>
<defs>
<linearGradient id="paint0_linear_290_13" x1="173.516" y1="139.547" x2="66.0385" y2="32.6005" gradientUnits="userSpaceOnUse">
<stop stop-color="#2869FF"/>
<stop offset="1" stop-color="#00AFFF"/>
</linearGradient>
<clipPath id="clip0_290_13">
<rect width="331" height="337" fill="white"/>
</clipPath>
</defs>
</svg>
